<svg width="1469.33" height="1706.67" viewBox="0 0 1102 1280" xmlns="http://www.w3.org/2000/svg" xmlns:xlink="http://www.w3.org/1999/xlink" overflow="hidden"><g fill="#9C27B0" transform="matrix(0.1 0 0 -0.1 0 1280)"><path d="M3140 12794C2893 12772 2711 12743 2495 12690 1683 12491 966 12032 604 11480 64 10655-130 9410 89 8180 150 7840 187 7721 373 7260 506 6930 549 6802 596 6595 723 6047 794 5403 806 4700 813 4314 801 4057 770 3916 733 3748 652 3512 521 3183 268 2550 190 2266 189 1980 189 1692 265 1514 477 1309 667 1125 875 1004 1445 745 1772 597 2005 502 2232 426 2784 240 3349 120 3985 55 4409 11 5067-12 5320 9 5892 56 6427 204 6714 395 6811 460 6848 499 6884 576 6921 653 6939 755 6950 945 6956 1039 6967 1176 6975 1250 6983 1324 6996 1455 7004 1540 7056 2082 7094 2325 7166 2578 7229 2797 7279 2907 7445 3185 7793 3768 8104 4228 8925 5380 9446 6110 9503 6191 9800 6625 9928 6812 10083 7037 10145 7125 10651 7849 10851 8232 10943 8650 11088 9303 11021 10077 10775 10585 10697 10747 10610 10870 10495 10985 10231 11247 9906 11402 9475 11471 9361 11489 9294 11493 9110 11493 8789 11493 8567 11463 8201 11369 8034 11327 8010 11323 8010 11343 8010 11369 7914 11546 7868 11607 7743 11769 7563 11876 7317 11935 7131 11980 6980 11990 6460 11990 5932 11990 5821 11997 5642 12041 5408 12098 5289 12147 4790 12393 4248 12660 4054 12729 3720 12776 3619 12790 3233 12802 3140 12794ZM3705 12575C3970 12540 4177 12484 4416 12384 4504 12347 4639 12291 4718 12259 4998 12143 5134 12062 5220 11960L5262 11910 5238 11901C5029 11816 4946 11771 4815 11672 4353 11324 3953 10667 3765 9945 3697 9684 3680 9559 3654 9095 3635 8774 3639 8625 3669 8508 3695 8407 3721 8359 3784 8294 3845 8231 3863 8225 3856 8273 3821 8487 3815 9014 3844 9310 3930 10197 4207 10892 4650 11331 4917 11595 5209 11744 5647 11839 5856 11884 6012 11902 6256 11907 6907 11923 7432 11759 7723 11451 8028 11127 8141 10597 8059 9870 8030 9610 7954 9378 7809 9110 7730 8962 7626 8804 7409 8500 7209 8220 7092 8048 7030 7941 6973 7842 6907 7710 6912 7704 6921 7695 7108 7797 7170 7845 7593 8168 8067 8993 8211 9655 8230 9740 8233 9786 8232 9955 8232 10065 8227 10207 8221 10270 8215 10333 8210 10459 8210 10550 8211 10825 8255 10965 8381 11091 8616 11328 9263 11426 9682 11289 10058 11166 10353 10870 10540 10426 10634 10204 10701 9939 10736 9650 10757 9476 10760 9080 10741 8995 10658 8614 10552 8294 10391 7941 10301 7741 10246 7647 9845 7005 9167 5918 8879 5503 8460 5010 8402 4941 8296 4809 8225 4715 7914 4304 7719 4110 7533 4023 7388 3956 7275 3969 7171 4066 7095 4136 7075 4183 7082 4279 7091 4405 7171 4541 7780 5470 8007 5816 8205 6138 8197 6146 8195 6149 8164 6131 8128 6107 7925 5971 7809 5821 7525 5330 7351 5030 7275 4913 7170 4787 7045 4638 6887 4514 6770 4474 6694 4448 6504 4448 6405 4474 6101 4554 5855 4766 5809 4988 5791 5076 5803 5302 5833 5430 5883 5640 5965 5849 6101 6108 6163 6228 6168 6240 6142 6221 6068 6169 5965 6028 5909 5903 5892 5866 5842 5729 5798 5600 5689 5281 5637 5178 5523 5068 5465 5011 5388 4975 5295 4960 5194 4944 5052 4962 4815 5021 4749 5038 4630 5065 4550 5081 4145 5163 3995 5242 3929 5406 3906 5463 3905 5475 3904 5765 3903 6084 3898 6193 3874 6385 3849 6587 3782 6932 3764 6949 3761 6952 3761 6940 3765 6921 3777 6866 3786 6342 3778 6149 3765 5824 3713 5575 3635 5465 3545 5338 3347 5270 3069 5270 2744 5270 2458 5377 2381 5528 2361 5567 2358 5593 2293 6353 2278 6527 2263 6670 2259 6670 2252 6670 2214 6500 2205 6430 2202 6405 2195 6275 2190 6140 2178 5821 2153 5677 2093 5573 2061 5518 1947 5411 1879 5373 1794 5325 1728 5307 1651 5312 1542 5318 1492 5366 1446 5510 1408 5628 1398 5747 1390 6180 1385 6403 1379 6596 1376 6610 1373 6624 1363 6680 1355 6735 1328 6899 1285 7093 1200 7428 1156 7603 1117 7750 1115 7755 1109 7767 1115 7691 1141 7420 1196 6847 1224 6474 1241 6100 1251 5877 1250 5827 1236 5700 1208 5461 1168 5323 1112 5280 1078 5253 1063 5255 1026 5292 949 5369 874 5664 820 6097 751 6652 730 6732 432 7585 242 8130 168 8558 167 9120 166 9599 225 10020 351 10440 438 10730 581 11061 715 11280 840 11486 1025 11699 1225 11868 1510 12108 1922 12325 2335 12453 2527 12513 2839 12571 3065 12590 3216 12602 3559 12594 3705 12575ZM2780 5180C3934 5135 4966 4924 5830 4555 5974 4493 5998 4482 6545 4205 7042 3953 7123 3903 7245 3768 7321 3684 7344 3633 7348 3538 7354 3417 7328 3348 7179 3089 7092 2938 7074 2897 7026 2736 6951 2488 6889 2153 6850 1775 6832 1602 6810 1231 6810 1083 6810 1004 6808 940 6805 940 6802 940 6755 962 6701 990 5626 1529 4359 1893 3115 2020 2180 2115 1254 2067 511 1885L378 1852 385 1929C396 2055 410 2138 445 2285 488 2467 518 2558 662 2955 839 3439 890 3610 931 3856 950 3969 953 4019 952 4250 949 4632 972 4794 1044 4908 1138 5057 1380 5161 1700 5190 1809 5200 2392 5194 2780 5180ZM2856 1800C4154 1726 5220 1462 6190 976 6439 851 6568 766 6633 682 6695 602 6654 524 6515 460 6191 310 5794 212 5375 179 5189 164 4726 173 4550 194 3955 267 3549 365 2800 616 2294 785 2191 824 2025 905 1683 1071 1533 1250 1570 1449 1606 1642 1765 1752 2075 1795 2187 1811 2617 1813 2856 1800Z" stroke="#70AD47" stroke-width="0.999953" fill="#70AD47"/><path d="M3170 11785C2878 11704 2584 11411 2375 10991 2208 10656 2136 10311 2185 10079 2200 10010 2236 9920 2250 9920 2253 9920 2257 9937 2258 9958 2262 10021 2298 10222 2324 10321 2504 11011 2931 11566 3405 11725 3449 11740 3492 11754 3500 11757 3509 11760 3500 11768 3475 11777 3416 11799 3239 11804 3170 11785Z" stroke="#70AD47" stroke-width="0.999953" fill="#70AD47"/><path d="M9280 10496C9280 10493 9306 10424 9339 10343 9500 9937 9552 9671 9521 9414 9489 9158 9463 9060 9337 8720 9249 8481 9196 8323 9186 8270 9179 8235 9179 8235 9245 8304 9414 8481 9550 8773 9620 9110 9728 9633 9643 10134 9402 10392 9355 10443 9280 10506 9280 10496Z" stroke="#70AD47" stroke-width="0.999953" fill="#70AD47"/></g></svg>